<svg xmlns="http://www.w3.org/2000/svg" xmlns:xlink="http://www.w3.org/1999/xlink" width="500" zoomAndPan="magnify" viewBox="0 0 375 374.999991" height="500" preserveAspectRatio="xMidYMid meet" version="1.0"><defs><g/><clipPath id="879121e71c"><path d="M 26.691406 97.640625 L 129.441406 97.640625 L 129.441406 210.140625 L 26.691406 210.140625 Z M 26.691406 97.640625 " clip-rule="nonzero"/></clipPath><clipPath id="859ce40df1"><rect x="0" width="216" y="0" height="67"/></clipPath></defs><g clip-path="url(#879121e71c)"><path fill="#059669" d="M 36.089844 124 C 46.136719 116.136719 55.425781 111.765625 67.828125 108.394531 C 77.566406 105.742188 78.476562 105.742188 88.214844 108.394531 C 100.617188 111.765625 109.90625 116.136719 119.953125 124 C 121.671875 127.800781 119.738281 140.714844 118.945312 144.929688 C 117.359375 153.382812 114.433594 161.691406 110.308594 169.328125 L 116.71875 175.742188 C 121.941406 166.707031 125.609375 156.742188 127.523438 146.539062 C 129.6875 135.003906 130.773438 121.429688 125.804688 117.5 C 114.847656 108.832031 104.699219 103.832031 90.503906 99.972656 C 79.082031 96.867188 76.957031 96.867188 65.539062 99.972656 C 51.34375 103.832031 41.195312 108.832031 30.234375 117.5 C 25.269531 121.429688 26.355469 135.003906 28.519531 146.539062 C 33.660156 173.957031 51.480469 199.683594 78.019531 210.128906 C 89.085938 205.777344 98.632812 198.765625 106.378906 190.082031 L 100.199219 183.902344 C 94.035156 190.902344 86.585938 196.703125 78.019531 200.648438 C 56.105469 190.558594 41.476562 168.292969 37.09375 144.929688 C 36.304688 140.714844 34.371094 127.800781 36.089844 124 Z M 36.089844 124 " fill-opacity="1" fill-rule="evenodd"/></g><path fill="#059669" d="M 78.019531 195.804688 L 78.019531 179.714844 C 84.824219 179.714844 91.101562 177.476562 96.160156 173.695312 L 111.574219 189.109375 C 116.871094 194.40625 123.363281 188.554688 117.265625 182.457031 L 102.332031 167.523438 C 106.113281 162.464844 108.351562 156.1875 108.351562 149.382812 C 108.351562 132.632812 94.773438 119.054688 78.019531 119.054688 L 78.019531 110.769531 C 75.742188 110.769531 73.464844 111.382812 68.972656 112.601562 C 57.613281 115.691406 49.085938 119.601562 39.945312 126.539062 C 39.203125 130.828125 40.683594 140.382812 41.382812 144.125 C 45.378906 165.425781 58.414062 185.929688 78.019531 195.804688 Z M 78.019531 170.988281 C 66.089844 170.988281 56.417969 161.316406 56.417969 149.382812 C 56.417969 137.453125 66.089844 127.78125 78.019531 127.78125 C 89.953125 127.78125 99.625 137.453125 99.625 149.382812 C 99.625 161.316406 89.953125 170.988281 78.019531 170.988281 Z M 78.019531 170.988281 " fill-opacity="1" fill-rule="evenodd"/><g transform="matrix(1, 0, 0, 1, 142, 116)"><g clip-path="url(#859ce40df1)"><g fill="#000000" fill-opacity="1"><g transform="translate(0.447229, 43.852033)"><g><path d="M 19.703125 -23.953125 L 9.96875 -23.953125 L 9.96875 -16.734375 L 18.40625 -16.734375 L 18.40625 -11.40625 L 9.96875 -11.40625 L 9.96875 0 L 1.859375 0 L 1.859375 -29.75 L 19.703125 -29.75 Z M 19.703125 -23.953125 "/></g></g></g><g fill="#000000" fill-opacity="1"><g transform="translate(20.833426, 43.852033)"><g><path d="M 1.71875 -25.4375 L 1.71875 -31 L 9.875 -31 L 9.875 -25.4375 Z M 9.734375 0 L 1.859375 0 L 1.859375 -23.125 L 9.734375 -23.125 Z M 9.734375 0 "/></g></g></g><g fill="#000000" fill-opacity="1"><g transform="translate(32.416498, 43.852033)"><g><path d="M 8.203125 -23.125 L 13.859375 -23.125 C 18.398438 -23.125 20.671875 -21.207031 20.671875 -17.375 L 20.671875 -9.5 L 8.859375 -9.5 L 8.859375 -6.4375 C 8.859375 -5.757812 9.242188 -5.421875 10.015625 -5.421875 L 12.046875 -5.421875 C 12.816406 -5.421875 13.203125 -5.789062 13.203125 -6.53125 L 13.203125 -7.828125 L 20.671875 -7.828125 L 20.671875 -5.75 C 20.671875 -1.914062 18.398438 0 13.859375 0 L 8.203125 0 C 3.660156 0 1.390625 -1.914062 1.390625 -5.75 L 1.390625 -17.375 C 1.390625 -21.207031 3.660156 -23.125 8.203125 -23.125 Z M 8.859375 -13.765625 L 13.203125 -13.765625 L 13.203125 -16.6875 C 13.203125 -17.363281 12.816406 -17.703125 12.046875 -17.703125 L 10.015625 -17.703125 C 9.242188 -17.703125 8.859375 -17.363281 8.859375 -16.6875 Z M 8.859375 -13.765625 "/></g></g></g><g fill="#000000" fill-opacity="1"><g transform="translate(54.239005, 43.852033)"><g><path d="M 9.734375 0 L 1.859375 0 L 1.859375 -31 L 9.734375 -31 Z M 9.734375 0 "/></g></g></g><g fill="#000000" fill-opacity="1"><g transform="translate(65.822077, 43.852033)"><g><path d="M 12.46875 -31 L 20.34375 -31 L 20.34375 0 L 12.609375 0 L 12.609375 -2.96875 C 12.171875 -0.988281 10.765625 0 8.390625 0 L 7.546875 0 C 3.441406 0 1.390625 -1.914062 1.390625 -5.75 L 1.390625 -17.375 C 1.390625 -21.207031 3.441406 -23.125 7.546875 -23.125 L 8.390625 -23.125 C 10.523438 -23.125 11.882812 -22.289062 12.46875 -20.625 Z M 10.421875 -5.796875 L 11.21875 -5.796875 C 12.050781 -5.796875 12.46875 -6.257812 12.46875 -7.1875 L 12.46875 -15.9375 C 12.46875 -16.863281 12.050781 -17.328125 11.21875 -17.328125 L 10.421875 -17.328125 C 9.648438 -17.328125 9.265625 -16.988281 9.265625 -16.3125 L 9.265625 -6.8125 C 9.265625 -6.132812 9.648438 -5.796875 10.421875 -5.796875 Z M 10.421875 -5.796875 "/></g></g></g><g fill="#0dc5b9" fill-opacity="1"><g transform="translate(88.015997, 43.852033)"><g/></g></g><g fill="#000000" fill-opacity="1"><g transform="translate(97.28245, 43.852033)"><g><path d="M 15.671875 -29.75 L 23.640625 -29.75 L 23.640625 0 L 15.671875 0 L 15.671875 -11.765625 L 9.828125 -11.765625 L 9.828125 0 L 1.859375 0 L 1.859375 -29.75 L 9.828125 -29.75 L 9.828125 -17.5625 L 15.671875 -17.5625 Z M 15.671875 -29.75 "/></g></g></g><g fill="#000000" fill-opacity="1"><g transform="translate(122.765195, 43.852033)"><g><path d="M 8.203125 -23.125 L 13.859375 -23.125 C 18.398438 -23.125 20.671875 -21.207031 20.671875 -17.375 L 20.671875 -9.5 L 8.859375 -9.5 L 8.859375 -6.4375 C 8.859375 -5.757812 9.242188 -5.421875 10.015625 -5.421875 L 12.046875 -5.421875 C 12.816406 -5.421875 13.203125 -5.789062 13.203125 -6.53125 L 13.203125 -7.828125 L 20.671875 -7.828125 L 20.671875 -5.75 C 20.671875 -1.914062 18.398438 0 13.859375 0 L 8.203125 0 C 3.660156 0 1.390625 -1.914062 1.390625 -5.75 L 1.390625 -17.375 C 1.390625 -21.207031 3.660156 -23.125 8.203125 -23.125 Z M 8.859375 -13.765625 L 13.203125 -13.765625 L 13.203125 -16.6875 C 13.203125 -17.363281 12.816406 -17.703125 12.046875 -17.703125 L 10.015625 -17.703125 C 9.242188 -17.703125 8.859375 -17.363281 8.859375 -16.6875 Z M 8.859375 -13.765625 "/></g></g></g><g fill="#000000" fill-opacity="1"><g transform="translate(144.587702, 43.852033)"><g><path d="M 12.609375 -23.125 L 20.34375 -23.125 L 20.34375 0 L 12.46875 0 L 12.46875 -2.5 C 11.882812 -0.832031 10.523438 0 8.390625 0 L 7.546875 0 C 3.441406 0 1.390625 -1.914062 1.390625 -5.75 L 1.390625 -17.375 C 1.390625 -21.207031 3.441406 -23.125 7.546875 -23.125 L 8.390625 -23.125 C 10.765625 -23.125 12.171875 -22.132812 12.609375 -20.15625 Z M 10.421875 -5.796875 L 11.21875 -5.796875 C 12.050781 -5.796875 12.46875 -6.257812 12.46875 -7.1875 L 12.46875 -15.9375 C 12.46875 -16.863281 12.050781 -17.328125 11.21875 -17.328125 L 10.421875 -17.328125 C 9.648438 -17.328125 9.265625 -16.988281 9.265625 -16.3125 L 9.265625 -6.8125 C 9.265625 -6.132812 9.648438 -5.796875 10.421875 -5.796875 Z M 10.421875 -5.796875 "/></g></g></g><g fill="#000000" fill-opacity="1"><g transform="translate(166.780856, 43.852033)"><g><path d="M 9.734375 0 L 1.859375 0 L 1.859375 -31 L 9.734375 -31 Z M 9.734375 0 "/></g></g></g><g fill="#000000" fill-opacity="1"><g transform="translate(178.363929, 43.852033)"><g><path d="M 13.578125 -17.328125 L 10.65625 -17.328125 L 10.65625 -6.8125 C 10.65625 -6.132812 11.039062 -5.796875 11.8125 -5.796875 L 13.53125 -5.796875 L 13.53125 0 L 9.59375 0 C 5.050781 0 2.78125 -1.914062 2.78125 -5.75 L 2.78125 -17.328125 L 0.234375 -17.328125 L 0.234375 -23.125 L 2.78125 -23.125 L 2.78125 -27.671875 L 10.65625 -27.671875 L 10.65625 -23.125 L 13.578125 -23.125 Z M 13.578125 -17.328125 "/></g></g></g><g fill="#000000" fill-opacity="1"><g transform="translate(192.40261, 43.852033)"><g><path d="M 13.8125 -23.125 L 14.640625 -23.125 C 18.753906 -23.125 20.8125 -21.207031 20.8125 -17.375 L 20.8125 0 L 12.9375 0 L 12.9375 -16.3125 C 12.9375 -16.988281 12.546875 -17.328125 11.765625 -17.328125 L 10.984375 -17.328125 C 10.148438 -17.328125 9.734375 -16.863281 9.734375 -15.9375 L 9.734375 0 L 1.859375 0 L 1.859375 -31 L 9.734375 -31 L 9.734375 -20.625 C 10.316406 -22.289062 11.675781 -23.125 13.8125 -23.125 Z M 13.8125 -23.125 "/></g></g></g></g></g><g fill="#000000" fill-opacity="1"><g transform="translate(180.388681, 191.291896)"><g><path d="M 6.453125 0.171875 C 5.296875 0.171875 4.28125 -0.015625 3.40625 -0.390625 C 2.539062 -0.773438 1.867188 -1.320312 1.390625 -2.03125 C 0.921875 -2.75 0.6875 -3.578125 0.6875 -4.515625 L 0.6875 -4.796875 C 0.6875 -4.910156 0.722656 -5 0.796875 -5.0625 C 0.867188 -5.132812 0.960938 -5.171875 1.078125 -5.171875 L 3.8125 -5.171875 C 3.925781 -5.171875 4.019531 -5.144531 4.09375 -5.09375 C 4.164062 -5.050781 4.203125 -4.992188 4.203125 -4.921875 L 4.203125 -4.65625 C 4.203125 -4.195312 4.4375 -3.785156 4.90625 -3.421875 C 5.375 -3.066406 5.972656 -2.890625 6.703125 -2.890625 C 7.335938 -2.890625 7.804688 -3.023438 8.109375 -3.296875 C 8.410156 -3.578125 8.5625 -3.894531 8.5625 -4.25 C 8.5625 -4.65625 8.382812 -4.960938 8.03125 -5.171875 C 7.6875 -5.390625 7.0625 -5.644531 6.15625 -5.9375 L 5.671875 -6.078125 C 4.753906 -6.378906 3.945312 -6.707031 3.25 -7.0625 C 2.5625 -7.414062 1.972656 -7.90625 1.484375 -8.53125 C 0.992188 -9.15625 0.75 -9.929688 0.75 -10.859375 C 0.75 -11.742188 0.984375 -12.519531 1.453125 -13.1875 C 1.921875 -13.863281 2.566406 -14.378906 3.390625 -14.734375 C 4.222656 -15.097656 5.164062 -15.28125 6.21875 -15.28125 C 7.320312 -15.28125 8.316406 -15.078125 9.203125 -14.671875 C 10.085938 -14.265625 10.78125 -13.695312 11.28125 -12.96875 C 11.789062 -12.238281 12.046875 -11.394531 12.046875 -10.4375 L 12.046875 -10.265625 C 12.046875 -10.148438 12.007812 -10.054688 11.9375 -9.984375 C 11.863281 -9.910156 11.769531 -9.875 11.65625 -9.875 L 8.90625 -9.875 C 8.789062 -9.875 8.695312 -9.890625 8.625 -9.921875 C 8.550781 -9.960938 8.515625 -10.019531 8.515625 -10.09375 L 8.515625 -10.296875 C 8.515625 -10.796875 8.289062 -11.238281 7.84375 -11.625 C 7.40625 -12.019531 6.8125 -12.21875 6.0625 -12.21875 C 5.5 -12.21875 5.054688 -12.097656 4.734375 -11.859375 C 4.421875 -11.628906 4.265625 -11.304688 4.265625 -10.890625 C 4.265625 -10.578125 4.363281 -10.316406 4.5625 -10.109375 C 4.769531 -9.898438 5.085938 -9.703125 5.515625 -9.515625 C 5.941406 -9.335938 6.59375 -9.109375 7.46875 -8.828125 C 8.46875 -8.484375 9.25 -8.179688 9.8125 -7.921875 C 10.375 -7.660156 10.90625 -7.238281 11.40625 -6.65625 C 11.90625 -6.070312 12.15625 -5.304688 12.15625 -4.359375 C 12.15625 -3.453125 11.914062 -2.65625 11.4375 -1.96875 C 10.957031 -1.289062 10.285156 -0.765625 9.421875 -0.390625 C 8.566406 -0.015625 7.578125 0.171875 6.453125 0.171875 Z M 6.453125 0.171875 "/></g></g></g><g fill="#000000" fill-opacity="1"><g transform="translate(197.067895, 191.291896)"><g><path d="M 5.4375 -0.046875 C 5.320312 -0.046875 5.226562 -0.0820312 5.15625 -0.15625 C 5.082031 -0.226562 5.046875 -0.320312 5.046875 -0.4375 L 5.046875 -5.375 C 5.046875 -5.414062 5.03125 -5.476562 5 -5.5625 L 0.671875 -14.65625 L 0.625 -14.828125 C 0.625 -15.015625 0.738281 -15.109375 0.96875 -15.109375 L 4.015625 -15.109375 C 4.234375 -15.109375 4.382812 -15.003906 4.46875 -14.796875 L 6.734375 -9.515625 C 6.765625 -9.453125 6.800781 -9.421875 6.84375 -9.421875 C 6.894531 -9.421875 6.929688 -9.453125 6.953125 -9.515625 L 9.234375 -14.796875 C 9.316406 -15.003906 9.46875 -15.109375 9.6875 -15.109375 L 12.75 -15.109375 C 12.851562 -15.109375 12.9375 -15.082031 13 -15.03125 C 13.0625 -14.976562 13.09375 -14.914062 13.09375 -14.84375 C 13.09375 -14.757812 13.082031 -14.695312 13.0625 -14.65625 L 8.65625 -5.5625 C 8.625 -5.476562 8.609375 -5.414062 8.609375 -5.375 L 8.609375 -0.4375 C 8.609375 -0.320312 8.570312 -0.226562 8.5 -0.15625 C 8.425781 -0.0820312 8.332031 -0.046875 8.21875 -0.046875 Z M 5.4375 -0.046875 "/></g></g></g><g fill="#000000" fill-opacity="1"><g transform="translate(214.610073, 191.291896)"><g><path d="M 6.453125 0.171875 C 5.296875 0.171875 4.28125 -0.015625 3.40625 -0.390625 C 2.539062 -0.773438 1.867188 -1.320312 1.390625 -2.03125 C 0.921875 -2.75 0.6875 -3.578125 0.6875 -4.515625 L 0.6875 -4.796875 C 0.6875 -4.910156 0.722656 -5 0.796875 -5.0625 C 0.867188 -5.132812 0.960938 -5.171875 1.078125 -5.171875 L 3.8125 -5.171875 C 3.925781 -5.171875 4.019531 -5.144531 4.09375 -5.09375 C 4.164062 -5.050781 4.203125 -4.992188 4.203125 -4.921875 L 4.203125 -4.65625 C 4.203125 -4.195312 4.4375 -3.785156 4.90625 -3.421875 C 5.375 -3.066406 5.972656 -2.890625 6.703125 -2.890625 C 7.335938 -2.890625 7.804688 -3.023438 8.109375 -3.296875 C 8.410156 -3.578125 8.5625 -3.894531 8.5625 -4.25 C 8.5625 -4.65625 8.382812 -4.960938 8.03125 -5.171875 C 7.6875 -5.390625 7.0625 -5.644531 6.15625 -5.9375 L 5.671875 -6.078125 C 4.753906 -6.378906 3.945312 -6.707031 3.25 -7.0625 C 2.5625 -7.414062 1.972656 -7.90625 1.484375 -8.53125 C 0.992188 -9.15625 0.75 -9.929688 0.75 -10.859375 C 0.75 -11.742188 0.984375 -12.519531 1.453125 -13.1875 C 1.921875 -13.863281 2.566406 -14.378906 3.390625 -14.734375 C 4.222656 -15.097656 5.164062 -15.28125 6.21875 -15.28125 C 7.320312 -15.28125 8.316406 -15.078125 9.203125 -14.671875 C 10.085938 -14.265625 10.78125 -13.695312 11.28125 -12.96875 C 11.789062 -12.238281 12.046875 -11.394531 12.046875 -10.4375 L 12.046875 -10.265625 C 12.046875 -10.148438 12.007812 -10.054688 11.9375 -9.984375 C 11.863281 -9.910156 11.769531 -9.875 11.65625 -9.875 L 8.90625 -9.875 C 8.789062 -9.875 8.695312 -9.890625 8.625 -9.921875 C 8.550781 -9.960938 8.515625 -10.019531 8.515625 -10.09375 L 8.515625 -10.296875 C 8.515625 -10.796875 8.289062 -11.238281 7.84375 -11.625 C 7.40625 -12.019531 6.8125 -12.21875 6.0625 -12.21875 C 5.5 -12.21875 5.054688 -12.097656 4.734375 -11.859375 C 4.421875 -11.628906 4.265625 -11.304688 4.265625 -10.890625 C 4.265625 -10.578125 4.363281 -10.316406 4.5625 -10.109375 C 4.769531 -9.898438 5.085938 -9.703125 5.515625 -9.515625 C 5.941406 -9.335938 6.59375 -9.109375 7.46875 -8.828125 C 8.46875 -8.484375 9.25 -8.179688 9.8125 -7.921875 C 10.375 -7.660156 10.90625 -7.238281 11.40625 -6.65625 C 11.90625 -6.070312 12.15625 -5.304688 12.15625 -4.359375 C 12.15625 -3.453125 11.914062 -2.65625 11.4375 -1.96875 C 10.957031 -1.289062 10.285156 -0.765625 9.421875 -0.390625 C 8.566406 -0.015625 7.578125 0.171875 6.453125 0.171875 Z M 6.453125 0.171875 "/></g></g></g><g fill="#000000" fill-opacity="1"><g transform="translate(231.289286, 191.291896)"><g><path d="M 11.84375 -15.109375 C 11.957031 -15.109375 12.050781 -15.070312 12.125 -15 C 12.195312 -14.925781 12.234375 -14.832031 12.234375 -14.71875 L 12.234375 -12.40625 C 12.234375 -12.289062 12.195312 -12.195312 12.125 -12.125 C 12.050781 -12.050781 11.957031 -12.015625 11.84375 -12.015625 L 8.25 -12.015625 C 8.144531 -12.015625 8.09375 -11.96875 8.09375 -11.875 L 8.09375 -0.390625 C 8.09375 -0.273438 8.054688 -0.179688 7.984375 -0.109375 C 7.910156 -0.0351562 7.816406 0 7.703125 0 L 4.890625 0 C 4.773438 0 4.679688 -0.0351562 4.609375 -0.109375 C 4.546875 -0.179688 4.515625 -0.273438 4.515625 -0.390625 L 4.515625 -11.875 C 4.515625 -11.96875 4.460938 -12.015625 4.359375 -12.015625 L 0.890625 -12.015625 C 0.773438 -12.015625 0.679688 -12.050781 0.609375 -12.125 C 0.535156 -12.195312 0.5 -12.289062 0.5 -12.40625 L 0.5 -14.71875 C 0.5 -14.832031 0.535156 -14.925781 0.609375 -15 C 0.679688 -15.070312 0.773438 -15.109375 0.890625 -15.109375 Z M 11.84375 -15.109375 "/></g></g></g><g fill="#000000" fill-opacity="1"><g transform="translate(247.860628, 191.291896)"><g><path d="M 11.78125 -12.421875 C 11.78125 -12.304688 11.742188 -12.210938 11.671875 -12.140625 C 11.597656 -12.078125 11.503906 -12.046875 11.390625 -12.046875 L 4.796875 -12.046875 C 4.691406 -12.046875 4.640625 -11.992188 4.640625 -11.890625 L 4.640625 -9.328125 C 4.640625 -9.222656 4.691406 -9.171875 4.796875 -9.171875 L 8.953125 -9.171875 C 9.066406 -9.171875 9.160156 -9.132812 9.234375 -9.0625 C 9.304688 -8.988281 9.34375 -8.894531 9.34375 -8.78125 L 9.34375 -6.515625 C 9.34375 -6.398438 9.304688 -6.304688 9.234375 -6.234375 C 9.160156 -6.160156 9.066406 -6.125 8.953125 -6.125 L 4.796875 -6.125 C 4.691406 -6.125 4.640625 -6.078125 4.640625 -5.984375 L 4.640625 -3.21875 C 4.640625 -3.113281 4.691406 -3.0625 4.796875 -3.0625 L 11.390625 -3.0625 C 11.503906 -3.0625 11.597656 -3.023438 11.671875 -2.953125 C 11.742188 -2.878906 11.78125 -2.785156 11.78125 -2.671875 L 11.78125 -0.390625 C 11.78125 -0.273438 11.742188 -0.179688 11.671875 -0.109375 C 11.597656 -0.0351562 11.503906 0 11.390625 0 L 1.453125 0 C 1.328125 0 1.226562 -0.0351562 1.15625 -0.109375 C 1.09375 -0.179688 1.0625 -0.273438 1.0625 -0.390625 L 1.0625 -14.71875 C 1.0625 -14.832031 1.09375 -14.925781 1.15625 -15 C 1.226562 -15.070312 1.328125 -15.109375 1.453125 -15.109375 L 11.390625 -15.109375 C 11.503906 -15.109375 11.597656 -15.070312 11.671875 -15 C 11.742188 -14.925781 11.78125 -14.832031 11.78125 -14.71875 Z M 11.78125 -12.421875 "/></g></g></g><g fill="#000000" fill-opacity="1"><g transform="translate(264.151497, 191.291896)"><g><path d="M 1.46875 0 C 1.351562 0 1.257812 -0.0351562 1.1875 -0.109375 C 1.113281 -0.179688 1.078125 -0.273438 1.078125 -0.390625 L 1.078125 -14.71875 C 1.078125 -14.832031 1.113281 -14.925781 1.1875 -15 C 1.257812 -15.070312 1.351562 -15.109375 1.46875 -15.109375 L 4.25 -15.109375 C 4.445312 -15.109375 4.597656 -15.019531 4.703125 -14.84375 L 7.578125 -10.203125 C 7.648438 -10.109375 7.722656 -10.109375 7.796875 -10.203125 L 10.6875 -14.84375 C 10.78125 -15.019531 10.929688 -15.109375 11.140625 -15.109375 L 13.921875 -15.109375 C 14.035156 -15.109375 14.128906 -15.070312 14.203125 -15 C 14.273438 -14.925781 14.3125 -14.832031 14.3125 -14.71875 L 14.3125 -0.390625 C 14.3125 -0.273438 14.273438 -0.179688 14.203125 -0.109375 C 14.128906 -0.0351562 14.035156 0 13.921875 0 L 11.109375 0 C 10.992188 0 10.898438 -0.0351562 10.828125 -0.109375 C 10.753906 -0.179688 10.71875 -0.273438 10.71875 -0.390625 L 10.71875 -8.828125 C 10.71875 -8.898438 10.695312 -8.941406 10.65625 -8.953125 C 10.613281 -8.960938 10.578125 -8.9375 10.546875 -8.875 L 8.796875 -6.015625 C 8.703125 -5.847656 8.550781 -5.765625 8.34375 -5.765625 L 7.03125 -5.765625 C 6.832031 -5.765625 6.679688 -5.847656 6.578125 -6.015625 L 4.828125 -8.875 C 4.804688 -8.9375 4.769531 -8.960938 4.71875 -8.953125 C 4.675781 -8.941406 4.65625 -8.898438 4.65625 -8.828125 L 4.65625 -0.390625 C 4.65625 -0.273438 4.617188 -0.179688 4.546875 -0.109375 C 4.472656 -0.0351562 4.378906 0 4.265625 0 Z M 1.46875 0 "/></g></g></g><g fill="#000000" fill-opacity="1"><g transform="translate(283.376472, 191.291896)"><g><path d="M 6.453125 0.171875 C 5.296875 0.171875 4.28125 -0.015625 3.40625 -0.390625 C 2.539062 -0.773438 1.867188 -1.320312 1.390625 -2.03125 C 0.921875 -2.75 0.6875 -3.578125 0.6875 -4.515625 L 0.6875 -4.796875 C 0.6875 -4.910156 0.722656 -5 0.796875 -5.0625 C 0.867188 -5.132812 0.960938 -5.171875 1.078125 -5.171875 L 3.8125 -5.171875 C 3.925781 -5.171875 4.019531 -5.144531 4.09375 -5.09375 C 4.164062 -5.050781 4.203125 -4.992188 4.203125 -4.921875 L 4.203125 -4.65625 C 4.203125 -4.195312 4.4375 -3.785156 4.90625 -3.421875 C 5.375 -3.066406 5.972656 -2.890625 6.703125 -2.890625 C 7.335938 -2.890625 7.804688 -3.023438 8.109375 -3.296875 C 8.410156 -3.578125 8.5625 -3.894531 8.5625 -4.25 C 8.5625 -4.65625 8.382812 -4.960938 8.03125 -5.171875 C 7.6875 -5.390625 7.0625 -5.644531 6.15625 -5.9375 L 5.671875 -6.078125 C 4.753906 -6.378906 3.945312 -6.707031 3.25 -7.0625 C 2.5625 -7.414062 1.972656 -7.90625 1.484375 -8.53125 C 0.992188 -9.15625 0.75 -9.929688 0.75 -10.859375 C 0.75 -11.742188 0.984375 -12.519531 1.453125 -13.1875 C 1.921875 -13.863281 2.566406 -14.378906 3.390625 -14.734375 C 4.222656 -15.097656 5.164062 -15.28125 6.21875 -15.28125 C 7.320312 -15.28125 8.316406 -15.078125 9.203125 -14.671875 C 10.085938 -14.265625 10.78125 -13.695312 11.28125 -12.96875 C 11.789062 -12.238281 12.046875 -11.394531 12.046875 -10.4375 L 12.046875 -10.265625 C 12.046875 -10.148438 12.007812 -10.054688 11.9375 -9.984375 C 11.863281 -9.910156 11.769531 -9.875 11.65625 -9.875 L 8.90625 -9.875 C 8.789062 -9.875 8.695312 -9.890625 8.625 -9.921875 C 8.550781 -9.960938 8.515625 -10.019531 8.515625 -10.09375 L 8.515625 -10.296875 C 8.515625 -10.796875 8.289062 -11.238281 7.84375 -11.625 C 7.40625 -12.019531 6.8125 -12.21875 6.0625 -12.21875 C 5.5 -12.21875 5.054688 -12.097656 4.734375 -11.859375 C 4.421875 -11.628906 4.265625 -11.304688 4.265625 -10.890625 C 4.265625 -10.578125 4.363281 -10.316406 4.5625 -10.109375 C 4.769531 -9.898438 5.085938 -9.703125 5.515625 -9.515625 C 5.941406 -9.335938 6.59375 -9.109375 7.46875 -8.828125 C 8.46875 -8.484375 9.25 -8.179688 9.8125 -7.921875 C 10.375 -7.660156 10.90625 -7.238281 11.40625 -6.65625 C 11.90625 -6.070312 12.15625 -5.304688 12.15625 -4.359375 C 12.15625 -3.453125 11.914062 -2.65625 11.4375 -1.96875 C 10.957031 -1.289062 10.285156 -0.765625 9.421875 -0.390625 C 8.566406 -0.015625 7.578125 0.171875 6.453125 0.171875 Z M 6.453125 0.171875 "/></g></g></g></svg>