<svg xmlns="http://www.w3.org/2000/svg" xmlns:xlink="http://www.w3.org/1999/xlink" width="500" zoomAndPan="magnify" viewBox="0 0 375 374.999991" height="500" preserveAspectRatio="xMidYMid meet" version="1.0"><defs><clipPath id="83ebe18fd6"><path d="M 60.351562 48.171875 L 314.601562 48.171875 L 314.601562 327 L 60.351562 327 Z M 60.351562 48.171875 " clip-rule="nonzero"/></clipPath></defs><g clip-path="url(#83ebe18fd6)"><path fill="#059669" d="M 83.621094 113.464844 C 108.515625 93.988281 131.523438 83.15625 162.246094 74.800781 C 186.367188 68.238281 188.625 68.238281 212.742188 74.800781 C 243.464844 83.160156 266.476562 93.988281 291.367188 113.464844 C 295.621094 122.875 290.832031 154.867188 288.875 165.308594 C 284.945312 186.246094 277.699219 206.824219 267.472656 225.75 L 283.355469 241.636719 C 296.289062 219.257812 305.382812 194.566406 310.121094 169.292969 C 315.480469 140.722656 318.171875 107.097656 305.863281 97.363281 C 278.714844 75.894531 253.582031 63.507812 218.417969 53.941406 C 190.125 46.246094 184.863281 46.246094 156.570312 53.941406 C 121.40625 63.507812 96.273438 75.894531 69.125 97.363281 C 56.816406 107.097656 59.511719 140.722656 64.871094 169.292969 C 77.605469 237.210938 121.753906 300.945312 187.496094 326.820312 C 214.902344 316.03125 238.550781 298.664062 257.738281 277.160156 L 242.429688 261.851562 C 227.167969 279.191406 208.710938 293.5625 187.496094 303.328125 C 133.207031 278.335938 96.96875 223.183594 86.117188 165.308594 C 84.160156 154.867188 79.367188 122.875 83.621094 113.464844 Z M 83.621094 113.464844 " fill-opacity="1" fill-rule="evenodd"/></g><path fill="#059669" d="M 187.496094 291.332031 L 187.496094 251.476562 C 204.34375 251.476562 219.898438 245.929688 232.429688 236.5625 L 270.613281 274.746094 C 283.734375 287.871094 299.8125 273.375 284.707031 258.269531 L 247.714844 221.28125 C 257.082031 208.746094 262.628906 193.195312 262.628906 176.34375 C 262.628906 134.847656 228.988281 101.210938 187.496094 101.210938 L 187.496094 80.6875 C 181.851562 80.6875 176.210938 82.203125 165.082031 85.230469 C 136.945312 92.886719 115.816406 102.5625 93.171875 119.75 C 91.339844 130.375 95 154.046875 96.738281 163.316406 C 106.632812 216.082031 138.921875 266.875 187.496094 291.332031 Z M 187.496094 229.859375 C 157.9375 229.859375 133.980469 205.898438 133.980469 176.34375 C 133.980469 146.789062 157.9375 122.828125 187.496094 122.828125 C 217.050781 122.828125 241.011719 146.789062 241.011719 176.34375 C 241.011719 205.898438 217.050781 229.859375 187.496094 229.859375 Z M 187.496094 229.859375 " fill-opacity="1" fill-rule="evenodd"/></svg>