<svg xmlns="http://www.w3.org/2000/svg" xmlns:xlink="http://www.w3.org/1999/xlink" width="300" zoomAndPan="magnify" viewBox="0 0 300 80" height="80" preserveAspectRatio="xMidYMid meet" version="1.0">
  <defs>
    <clipPath id="879121e71c">
      <path d="M 10 20 L 60 20 L 60 70 L 10 70 Z M 10 20 " clip-rule="nonzero"/>
    </clipPath>
  </defs>
  <g clip-path="url(#879121e71c)">
    <path fill="#059669" d="M 18 30 C 25 25 30 22.5 37.5 21 C 42.5 20 43 20 48 21 C 55.5 22.5 60.5 25 67.5 30 C 68.5 32 67.5 38.5 67 41 C 66 45.5 64 49.5 61.5 53 L 65 56.5 C 67.5 52 69 47 70 41.5 C 71.5 35.5 72 28.5 69.5 26.5 C 63.5 22 58.5 19.5 50 17.5 C 43.5 16 42.5 16 36 17.5 C 27.5 19.5 22.5 22 16.5 26.5 C 14 28.5 14.5 35.5 16 41.5 C 18.5 55 28 67.5 42.5 72 C 49.5 69.5 55 65.5 59 60.5 L 55.5 57 C 52 61.5 47.5 65 42.5 67 C 30.5 61.5 22.5 52 20 41 C 19.5 38.5 18.5 32 18 30 Z M 18 30 " fill-opacity="1" fill-rule="evenodd"/>
  </g>
  <path fill="#059669" d="M 42.5 66 L 42.5 56.5 C 47 56.5 51 55 54.5 52.5 L 63.5 61.5 C 66.5 64.5 70 61 66.5 57.5 L 58 49 C 60 46 61.5 42 61.5 37.5 C 61.5 28 54.5 20.5 42.5 20.5 L 42.5 16 C 41 16 39.5 16.2 37 16.8 C 30.5 18.5 25.5 20.5 19.5 24.5 C 19 26.5 19.8 31 20.2 33 C 22.5 44.5 30.5 56 42.5 66 Z M 42.5 54 C 36 54 30.5 48.5 30.5 37.5 C 30.5 26.5 36 21 42.5 21 C 49 21 54.5 26.5 54.5 37.5 C 54.5 48.5 49 54 42.5 54 Z M 42.5 54 " fill-opacity="1" fill-rule="evenodd"/>
  
  <!-- Text "Field Health" -->
  <g fill="#000000" fill-opacity="1">
    <g transform="translate(75, 35)">
      <!-- F -->
      <path d="M 10 -12 L 5 -12 L 5 -8.5 L 9.5 -8.5 L 9.5 -6 L 5 -6 L 5 0 L 1 0 L 1 -15 L 10 -15 Z M 10 -12"/>
      <!-- i -->
      <g transform="translate(11, 0)">
        <path d="M 1 -13 L 1 -16 L 5 -16 L 5 -13 Z M 5 0 L 1 0 L 1 -12 L 5 -12 Z M 5 0"/>
      </g>
      <!-- e -->
      <g transform="translate(17, 0)">
        <path d="M 4 -12 L 7 -12 C 9.5 -12 10.5 -11 10.5 -9 L 10.5 -5 L 4.5 -5 L 4.5 -3.5 C 4.5 -3 4.8 -2.8 5.2 -2.8 L 6.2 -2.8 C 6.6 -2.8 6.8 -3 6.8 -3.5 L 6.8 -4 L 10.5 -4 L 10.5 -3 C 10.5 -1 9.5 0 7 0 L 4 0 C 1.8 0 0.7 -1 0.7 -3 L 0.7 -9 C 0.7 -11 1.8 -12 4 -12 Z M 4.5 -7 L 6.8 -7 L 6.8 -8.5 C 6.8 -9 6.6 -9.2 6.2 -9.2 L 5.2 -9.2 C 4.8 -9.2 4.5 -9 4.5 -8.5 Z M 4.5 -7"/>
      </g>
      <!-- l -->
      <g transform="translate(29, 0)">
        <path d="M 5 0 L 1 0 L 1 -16 L 5 -16 Z M 5 0"/>
      </g>
      <!-- d -->
      <g transform="translate(35, 0)">
        <path d="M 6.5 -16 L 10.5 -16 L 10.5 0 L 6.5 0 L 6.5 -1.5 C 6.3 -0.5 5.5 0 4.3 0 L 3.9 0 C 1.8 0 0.7 -1 0.7 -3 L 0.7 -9 C 0.7 -11 1.8 -12 3.9 -12 L 4.3 -12 C 5.4 -12 6.1 -11.5 6.5 -10.5 Z M 5.4 -3 L 5.8 -3 C 6.2 -3 6.5 -3.3 6.5 -3.7 L 6.5 -8.3 C 6.5 -8.7 6.2 -9 5.8 -9 L 5.4 -9 C 5 -9 4.8 -8.7 4.8 -8.3 L 4.8 -3.7 C 4.8 -3.3 5 -3 5.4 -3 Z M 5.4 -3"/>
      </g>
    </g>
    
    <!-- Text "Health" -->
    <g transform="translate(155, 35)">
      <!-- H -->
      <path d="M 8 -15 L 12 -15 L 12 0 L 8 0 L 8 -6 L 5 -6 L 5 0 L 1 0 L 1 -15 L 5 -15 L 5 -9 L 8 -9 Z M 8 -15"/>
      <!-- e -->
      <g transform="translate(14, 0)">
        <path d="M 4 -12 L 7 -12 C 9.5 -12 10.5 -11 10.5 -9 L 10.5 -5 L 4.5 -5 L 4.5 -3.5 C 4.5 -3 4.8 -2.8 5.2 -2.8 L 6.2 -2.8 C 6.6 -2.8 6.8 -3 6.8 -3.5 L 6.8 -4 L 10.5 -4 L 10.5 -3 C 10.5 -1 9.5 0 7 0 L 4 0 C 1.8 0 0.7 -1 0.7 -3 L 0.7 -9 C 0.7 -11 1.8 -12 4 -12 Z M 4.5 -7 L 6.8 -7 L 6.8 -8.5 C 6.8 -9 6.6 -9.2 6.2 -9.2 L 5.2 -9.2 C 4.8 -9.2 4.5 -9 4.5 -8.5 Z M 4.5 -7"/>
      </g>
      <!-- a -->
      <g transform="translate(26, 0)">
        <path d="M 6.5 -12 L 10.5 -12 L 10.5 0 L 6.4 0 L 6.4 -1.3 C 6.1 -0.4 5.4 0 4.3 0 L 3.9 0 C 1.8 0 0.7 -1 0.7 -3 L 0.7 -9 C 0.7 -11 1.8 -12 3.9 -12 L 4.3 -12 C 5.5 -12 6.2 -11.5 6.5 -10.5 Z M 5.4 -3 L 5.8 -3 C 6.2 -3 6.5 -3.3 6.5 -3.7 L 6.5 -8.3 C 6.5 -8.7 6.2 -9 5.8 -9 L 5.4 -9 C 5 -9 4.8 -8.7 4.8 -8.3 L 4.8 -3.7 C 4.8 -3.3 5 -3 5.4 -3 Z M 5.4 -3"/>
      </g>
      <!-- l -->
      <g transform="translate(38, 0)">
        <path d="M 5 0 L 1 0 L 1 -16 L 5 -16 Z M 5 0"/>
      </g>
      <!-- t -->
      <g transform="translate(44, 0)">
        <path d="M 7 -9 L 5.5 -9 L 5.5 -3.5 C 5.5 -3.2 5.7 -3 6 -3 L 7 -3 L 7 0 L 5 0 C 2.6 0 1.4 -1 1.4 -3 L 1.4 -9 L 0.1 -9 L 0.1 -12 L 1.4 -12 L 1.4 -14 L 5.5 -14 L 5.5 -12 L 7 -12 Z M 7 -9"/>
      </g>
      <!-- h -->
      <g transform="translate(52, 0)">
        <path d="M 7 -12 L 7.5 -12 C 9.5 -12 10.5 -11 10.5 -9 L 10.5 0 L 6.5 0 L 6.5 -8.5 C 6.5 -8.8 6.3 -9 6 -9 L 5.7 -9 C 5.3 -9 5 -8.7 5 -8.3 L 5 0 L 1 0 L 1 -16 L 5 -16 L 5 -10.5 C 5.3 -11.5 6 -12 7 -12 Z M 7 -12"/>
      </g>
    </g>
  </g>
  
  <!-- Text "Systems" -->
  <g fill="#000000" fill-opacity="1">
    <g transform="translate(95, 65)">
      <!-- S -->
      <path d="M 3.3 0.1 C 2.7 0.1 2.2 0 1.7 -0.2 C 1.3 -0.4 1 -0.7 0.7 -1 C 0.5 -1.4 0.35 -1.8 0.35 -2.3 L 0.35 -2.4 C 0.35 -2.5 0.36 -2.5 0.4 -2.55 C 0.44 -2.6 0.48 -2.6 0.54 -2.6 L 1.9 -2.6 C 2 -2.6 2.1 -2.6 2.15 -2.55 C 2.2 -2.5 2.2 -2.5 2.2 -2.4 L 2.2 -2.3 C 2.2 -2.1 2.3 -1.9 2.5 -1.7 C 2.7 -1.5 3 -1.4 3.4 -1.4 C 3.7 -1.4 3.9 -1.5 4.1 -1.6 C 4.2 -1.8 4.3 -1.9 4.3 -2.1 C 4.3 -2.3 4.2 -2.5 4 -2.6 C 3.8 -2.7 3.5 -2.8 3.1 -3 L 2.9 -3.1 C 2.4 -3.2 2 -3.4 1.6 -3.5 C 1.3 -3.7 1 -4 0.75 -4.3 C 0.5 -4.6 0.4 -5 0.4 -5.4 C 0.4 -5.9 0.5 -6.3 0.7 -6.6 C 1 -6.9 1.3 -7.2 1.7 -7.4 C 2.1 -7.5 2.6 -7.6 3.1 -7.6 C 3.7 -7.6 4.2 -7.5 4.6 -7.3 C 5 -7.1 5.4 -6.8 5.6 -6.5 C 5.9 -6.1 6 -5.7 6 -5.2 L 6 -5.1 C 6 -5.1 6 -5 5.97 -4.99 C 5.93 -4.95 5.88 -4.94 5.83 -4.94 L 4.45 -4.94 C 4.4 -4.94 4.35 -4.94 4.32 -4.96 C 4.28 -4.98 4.26 -5.01 4.26 -5.05 L 4.26 -5.15 C 4.26 -5.4 4.15 -5.6 3.92 -5.8 C 3.7 -6 3.4 -6.1 3.03 -6.1 C 2.75 -6.1 2.53 -6.05 2.37 -5.93 C 2.21 -5.81 2.13 -5.65 2.13 -5.45 C 2.13 -5.29 2.18 -5.16 2.28 -5.05 C 2.38 -4.95 2.55 -4.85 2.76 -4.76 C 2.97 -4.67 3.3 -4.55 3.73 -4.41 C 4.23 -4.24 4.63 -4.09 4.91 -3.96 C 5.19 -3.83 5.45 -3.62 5.7 -3.33 C 5.95 -3.04 6.08 -2.65 6.08 -2.18 C 6.08 -1.73 5.96 -1.33 5.72 -0.98 C 5.48 -0.64 5.14 -0.38 4.71 -0.2 C 4.28 -0.01 3.8 0.1 3.3 0.1 Z M 3.3 0.1"/>
      <!-- y -->
      <g transform="translate(8.5, 0)">
        <path d="M 2.7 0 C 2.65 0 2.61 -0.04 2.58 -0.08 C 2.54 -0.11 2.52 -0.16 2.52 -0.22 L 2.52 -2.7 C 2.52 -2.7 2.52 -2.7 2.5 -2.8 L 0.34 -7.3 L 0.31 -7.4 C 0.31 -7.5 0.37 -7.6 0.48 -7.6 L 2 -7.6 C 2.1 -7.6 2.2 -7.5 2.2 -7.4 L 3.4 -4.8 C 3.4 -4.7 3.4 -4.7 3.42 -4.7 C 3.45 -4.7 3.46 -4.7 3.48 -4.8 L 4.6 -7.4 C 4.7 -7.5 4.7 -7.6 4.8 -7.6 L 6.4 -7.6 C 6.4 -7.6 6.5 -7.6 6.5 -7.5 C 6.5 -7.5 6.5 -7.5 6.5 -7.4 C 6.5 -7.4 6.5 -7.4 6.5 -7.3 L 4.3 -2.8 C 4.3 -2.7 4.3 -2.7 4.3 -2.7 L 4.3 -0.22 C 4.3 -0.16 4.3 -0.11 4.25 -0.08 C 4.21 -0.04 4.17 0 4.11 0 Z M 2.7 0"/>
      </g>
      <!-- s -->
      <g transform="translate(15, 0)">
        <path d="M 3.3 0.1 C 2.7 0.1 2.2 0 1.7 -0.2 C 1.3 -0.4 1 -0.7 0.7 -1 C 0.5 -1.4 0.35 -1.8 0.35 -2.3 L 0.35 -2.4 C 0.35 -2.5 0.36 -2.5 0.4 -2.55 C 0.44 -2.6 0.48 -2.6 0.54 -2.6 L 1.9 -2.6 C 2 -2.6 2.1 -2.6 2.15 -2.55 C 2.2 -2.5 2.2 -2.5 2.2 -2.4 L 2.2 -2.3 C 2.2 -2.1 2.3 -1.9 2.5 -1.7 C 2.7 -1.5 3 -1.4 3.4 -1.4 C 3.7 -1.4 3.9 -1.5 4.1 -1.6 C 4.2 -1.8 4.3 -1.9 4.3 -2.1 C 4.3 -2.3 4.2 -2.5 4 -2.6 C 3.8 -2.7 3.5 -2.8 3.1 -3 L 2.9 -3.1 C 2.4 -3.2 2 -3.4 1.6 -3.5 C 1.3 -3.7 1 -4 0.75 -4.3 C 0.5 -4.6 0.4 -5 0.4 -5.4 C 0.4 -5.9 0.5 -6.3 0.7 -6.6 C 1 -6.9 1.3 -7.2 1.7 -7.4 C 2.1 -7.5 2.6 -7.6 3.1 -7.6 C 3.7 -7.6 4.2 -7.5 4.6 -7.3 C 5 -7.1 5.4 -6.8 5.6 -6.5 C 5.9 -6.1 6 -5.7 6 -5.2 L 6 -5.1 C 6 -5.1 6 -5 5.97 -4.99 C 5.93 -4.95 5.88 -4.94 5.83 -4.94 L 4.45 -4.94 C 4.4 -4.94 4.35 -4.94 4.32 -4.96 C 4.28 -4.98 4.26 -5.01 4.26 -5.05 L 4.26 -5.15 C 4.26 -5.4 4.15 -5.6 3.92 -5.8 C 3.7 -6 3.4 -6.1 3.03 -6.1 C 2.75 -6.1 2.53 -6.05 2.37 -5.93 C 2.21 -5.81 2.13 -5.65 2.13 -5.45 C 2.13 -5.29 2.18 -5.16 2.28 -5.05 C 2.38 -4.95 2.55 -4.85 2.76 -4.76 C 2.97 -4.67 3.3 -4.55 3.73 -4.41 C 4.23 -4.24 4.63 -4.09 4.91 -3.96 C 5.19 -3.83 5.45 -3.62 5.7 -3.33 C 5.95 -3.04 6.08 -2.65 6.08 -2.18 C 6.08 -1.73 5.96 -1.33 5.72 -0.98 C 5.48 -0.64 5.14 -0.38 4.71 -0.2 C 4.28 -0.01 3.8 0.1 3.3 0.1 Z M 3.3 0.1"/>
      </g>
      <!-- t -->
      <g transform="translate(21, 0)">
        <path d="M 5.9 -7.6 C 5.98 -7.6 6.03 -7.55 6.06 -7.5 C 6.1 -7.46 6.12 -7.42 6.12 -7.36 L 6.12 -6.2 C 6.12 -6.14 6.1 -6.1 6.06 -6.06 C 6.03 -6.03 5.98 -6.01 5.92 -6.01 L 4.1 -6.01 C 4.07 -6.01 4.05 -5.98 4.05 -5.94 L 4.05 -0.2 C 4.05 -0.14 4.03 -0.09 3.99 -0.055 C 3.96 -0.018 3.91 0 3.85 0 L 2.45 0 C 2.39 0 2.34 -0.018 2.3 -0.055 C 2.27 -0.09 2.26 -0.14 2.26 -0.2 L 2.26 -5.94 C 2.26 -5.98 2.23 -6.01 2.18 -6.01 L 0.45 -6.01 C 0.39 -6.01 0.34 -6.03 0.3 -6.06 C 0.27 -6.1 0.25 -6.14 0.25 -6.2 L 0.25 -7.36 C 0.25 -7.42 0.27 -7.46 0.3 -7.5 C 0.34 -7.55 0.39 -7.6 0.45 -7.6 Z M 5.9 -7.6"/>
      </g>
      <!-- e -->
      <g transform="translate(27, 0)">
        <path d="M 5.9 -6.2 C 5.9 -6.15 5.87 -6.1 5.84 -6.07 C 5.8 -6.04 5.75 -6.02 5.7 -6.02 L 2.4 -6.02 C 2.35 -6.02 2.32 -6 2.32 -5.95 L 2.32 -4.66 C 2.32 -4.61 2.35 -4.59 2.4 -4.59 L 4.5 -4.59 C 4.53 -4.59 4.58 -4.57 4.62 -4.53 C 4.65 -4.49 4.67 -4.45 4.67 -4.39 L 4.67 -3.26 C 4.67 -3.2 4.65 -3.15 4.62 -3.12 C 4.58 -3.08 4.53 -3.06 4.5 -3.06 L 2.4 -3.06 C 2.35 -3.06 2.32 -3.04 2.32 -2.99 L 2.32 -1.61 C 2.32 -1.56 2.35 -1.53 2.4 -1.53 L 5.7 -1.53 C 5.75 -1.53 5.8 -1.51 5.84 -1.48 C 5.87 -1.44 5.9 -1.39 5.9 -1.34 L 5.9 -0.2 C 5.9 -0.14 5.87 -0.09 5.84 -0.055 C 5.8 -0.018 5.75 0 5.7 0 L 0.73 0 C 0.66 0 0.61 -0.018 0.58 -0.055 C 0.55 -0.09 0.53 -0.14 0.53 -0.2 L 0.53 -7.36 C 0.53 -7.42 0.55 -7.46 0.58 -7.5 C 0.61 -7.55 0.66 -7.6 0.73 -7.6 L 5.7 -7.6 C 5.75 -7.6 5.8 -7.55 5.84 -7.5 C 5.87 -7.46 5.9 -7.42 5.9 -7.36 Z M 5.9 -6.2"/>
      </g>
      <!-- m -->
      <g transform="translate(34, 0)">
        <path d="M 0.73 0 C 0.68 0 0.63 -0.018 0.59 -0.055 C 0.56 -0.09 0.54 -0.14 0.54 -0.2 L 0.54 -7.36 C 0.54 -7.42 0.56 -7.46 0.59 -7.5 C 0.63 -7.55 0.68 -7.6 0.73 -7.6 L 2.13 -7.6 C 2.22 -7.6 2.3 -7.51 2.35 -7.42 L 3.8 -5.1 C 3.82 -5.05 3.86 -5.05 3.9 -5.1 L 5.34 -7.42 C 5.39 -7.51 5.46 -7.6 5.57 -7.6 L 6.96 -7.6 C 7.02 -7.6 7.06 -7.55 7.1 -7.5 C 7.14 -7.46 7.16 -7.42 7.16 -7.36 L 7.16 -0.2 C 7.16 -0.14 7.14 -0.09 7.1 -0.055 C 7.06 -0.018 7.02 0 6.96 0 L 5.55 0 C 5.5 0 5.45 -0.018 5.41 -0.055 C 5.38 -0.09 5.36 -0.14 5.36 -0.2 L 5.36 -4.41 C 5.36 -4.45 5.35 -4.47 5.33 -4.48 C 5.31 -4.48 5.29 -4.47 5.27 -4.44 L 4.4 -3.01 C 4.35 -2.92 4.28 -2.88 4.17 -2.88 L 3.52 -2.88 C 3.42 -2.88 3.34 -2.92 3.29 -3.01 L 2.41 -4.44 C 2.4 -4.47 2.38 -4.48 2.36 -4.48 C 2.34 -4.47 2.33 -4.45 2.33 -4.41 L 2.33 -0.2 C 2.33 -0.14 2.31 -0.09 2.27 -0.055 C 2.24 -0.018 2.19 0 2.13 0 Z M 0.73 0"/>
      </g>
      <!-- s -->
      <g transform="translate(43, 0)">
        <path d="M 3.3 0.1 C 2.7 0.1 2.2 0 1.7 -0.2 C 1.3 -0.4 1 -0.7 0.7 -1 C 0.5 -1.4 0.35 -1.8 0.35 -2.3 L 0.35 -2.4 C 0.35 -2.5 0.36 -2.5 0.4 -2.55 C 0.44 -2.6 0.48 -2.6 0.54 -2.6 L 1.9 -2.6 C 2 -2.6 2.1 -2.6 2.15 -2.55 C 2.2 -2.5 2.2 -2.5 2.2 -2.4 L 2.2 -2.3 C 2.2 -2.1 2.3 -1.9 2.5 -1.7 C 2.7 -1.5 3 -1.4 3.4 -1.4 C 3.7 -1.4 3.9 -1.5 4.1 -1.6 C 4.2 -1.8 4.3 -1.9 4.3 -2.1 C 4.3 -2.3 4.2 -2.5 4 -2.6 C 3.8 -2.7 3.5 -2.8 3.1 -3 L 2.9 -3.1 C 2.4 -3.2 2 -3.4 1.6 -3.5 C 1.3 -3.7 1 -4 0.75 -4.3 C 0.5 -4.6 0.4 -5 0.4 -5.4 C 0.4 -5.9 0.5 -6.3 0.7 -6.6 C 1 -6.9 1.3 -7.2 1.7 -7.4 C 2.1 -7.5 2.6 -7.6 3.1 -7.6 C 3.7 -7.6 4.2 -7.5 4.6 -7.3 C 5 -7.1 5.4 -6.8 5.6 -6.5 C 5.9 -6.1 6 -5.7 6 -5.2 L 6 -5.1 C 6 -5.1 6 -5 5.97 -4.99 C 5.93 -4.95 5.88 -4.94 5.83 -4.94 L 4.45 -4.94 C 4.4 -4.94 4.35 -4.94 4.32 -4.96 C 4.28 -4.98 4.26 -5.01 4.26 -5.05 L 4.26 -5.15 C 4.26 -5.4 4.15 -5.6 3.92 -5.8 C 3.7 -6 3.4 -6.1 3.03 -6.1 C 2.75 -6.1 2.53 -6.05 2.37 -5.93 C 2.21 -5.81 2.13 -5.65 2.13 -5.45 C 2.13 -5.29 2.18 -5.16 2.28 -5.05 C 2.38 -4.95 2.55 -4.85 2.76 -4.76 C 2.97 -4.67 3.3 -4.55 3.73 -4.41 C 4.23 -4.24 4.63 -4.09 4.91 -3.96 C 5.19 -3.83 5.45 -3.62 5.7 -3.33 C 5.95 -3.04 6.08 -2.65 6.08 -2.18 C 6.08 -1.73 5.96 -1.33 5.72 -0.98 C 5.48 -0.64 5.14 -0.38 4.71 -0.2 C 4.28 -0.01 3.8 0.1 3.3 0.1 Z M 3.3 0.1"/>
      </g>
    </g>
  </g>
</svg>