<svg xmlns="http://www.w3.org/2000/svg" xmlns:xlink="http://www.w3.org/1999/xlink" width="105" zoomAndPan="magnify" viewBox="0 0 78.75 30.000001" height="40" preserveAspectRatio="xMidYMid meet" version="1.0"><defs><g/><clipPath id="ffd97f0da6"><path d="M 1.148438 1 L 76 1 L 76 27 L 1.148438 27 Z M 1.148438 1 " clip-rule="nonzero"/></clipPath><clipPath id="a1a5893f46"><path d="M 1.058594 1.078125 L 23.5 1.078125 L 23.5 24.917969 L 1.058594 24.917969 Z M 1.058594 1.078125 " clip-rule="nonzero"/></clipPath><clipPath id="8f9e0be9f4"><path d="M 28 3 L 74.9375 3 L 74.9375 19 L 28 19 Z M 28 3 " clip-rule="nonzero"/></clipPath><clipPath id="f50b8b7986"><path d="M 0.0195312 4 L 5 4 L 5 11 L 0.0195312 11 Z M 0.0195312 4 " clip-rule="nonzero"/></clipPath><clipPath id="26b0782e17"><path d="M 42 3 L 46.9375 3 L 46.9375 11 L 42 11 Z M 42 3 " clip-rule="nonzero"/></clipPath><clipPath id="9377546501"><rect x="0" width="47" y="0" height="16"/></clipPath><clipPath id="81f245b2f8"><path d="M 0.148438 1 L 4 1 L 4 6 L 0.148438 6 Z M 0.148438 1 " clip-rule="nonzero"/></clipPath><clipPath id="efeb0bb78d"><rect x="0" width="27" y="0" height="7"/></clipPath><clipPath id="e3833abd92"><rect x="0" width="75" y="0" height="26"/></clipPath></defs><g clip-path="url(#ffd97f0da6)"><g transform="matrix(1, 0, 0, 1, 1, 1)"><g clip-path="url(#e3833abd92)"><g clip-path="url(#a1a5893f46)"><path fill="#059669" d="M 3.101562 6.796875 C 5.285156 5.089844 7.300781 4.140625 9.992188 3.410156 C 12.105469 2.835938 12.300781 2.835938 14.414062 3.410156 C 17.105469 4.140625 19.121094 5.089844 21.300781 6.796875 C 21.675781 7.621094 21.253906 10.425781 21.082031 11.339844 C 20.738281 13.171875 20.105469 14.976562 19.210938 16.632812 L 20.601562 18.023438 C 21.734375 16.066406 22.53125 13.902344 22.945312 11.6875 C 23.414062 9.183594 23.652344 6.238281 22.574219 5.386719 C 20.195312 3.503906 17.992188 2.421875 14.910156 1.582031 C 12.433594 0.910156 11.972656 0.910156 9.492188 1.582031 C 6.414062 2.421875 4.210938 3.503906 1.832031 5.386719 C 0.753906 6.238281 0.992188 9.183594 1.460938 11.6875 C 2.574219 17.636719 6.445312 23.222656 12.203125 25.488281 C 14.605469 24.542969 16.675781 23.019531 18.355469 21.136719 L 17.015625 19.796875 C 15.679688 21.316406 14.0625 22.574219 12.203125 23.429688 C 7.445312 21.242188 4.273438 16.410156 3.320312 11.339844 C 3.148438 10.425781 2.730469 7.621094 3.101562 6.796875 Z M 3.101562 6.796875 " fill-opacity="1" fill-rule="evenodd"/></g><path fill="#059669" d="M 12.203125 22.378906 L 12.203125 18.886719 C 13.679688 18.886719 15.042969 18.402344 16.140625 17.582031 L 19.484375 20.925781 C 20.632812 22.074219 22.042969 20.804688 20.71875 19.484375 L 17.476562 16.242188 C 18.296875 15.144531 18.785156 13.78125 18.785156 12.304688 C 18.785156 8.671875 15.835938 5.722656 12.203125 5.722656 L 12.203125 3.925781 C 11.707031 3.925781 11.214844 4.058594 10.238281 4.324219 C 7.773438 4.996094 5.921875 5.84375 3.941406 7.347656 C 3.777344 8.277344 4.101562 10.351562 4.253906 11.164062 C 5.117188 15.785156 7.949219 20.234375 12.203125 22.378906 Z M 12.203125 16.992188 C 9.613281 16.992188 7.515625 14.894531 7.515625 12.304688 C 7.515625 9.714844 9.613281 7.617188 12.203125 7.617188 C 14.792969 7.617188 16.890625 9.714844 16.890625 12.304688 C 16.890625 14.894531 14.792969 16.992188 12.203125 16.992188 Z M 12.203125 16.992188 " fill-opacity="1" fill-rule="evenodd"/><g clip-path="url(#8f9e0be9f4)"><g transform="matrix(1, 0, 0, 1, 28, 3)"><g clip-path="url(#9377546501)"><g clip-path="url(#f50b8b7986)"><g fill="#000000" fill-opacity="1"><g transform="translate(0.186221, 10.467483)"><g><path d="M 4.28125 -5.203125 L 2.15625 -5.203125 L 2.15625 -3.625 L 4 -3.625 L 4 -2.46875 L 2.15625 -2.46875 L 2.15625 0 L 0.40625 0 L 0.40625 -6.453125 L 4.28125 -6.453125 Z M 4.28125 -5.203125 "/></g></g></g></g><g fill="#000000" fill-opacity="1"><g transform="translate(4.612744, 10.467483)"><g><path d="M 0.375 -5.53125 L 0.375 -6.734375 L 2.140625 -6.734375 L 2.140625 -5.53125 Z M 2.109375 0 L 0.40625 0 L 0.40625 -5.015625 L 2.109375 -5.015625 Z M 2.109375 0 "/></g></g></g><g fill="#000000" fill-opacity="1"><g transform="translate(7.127815, 10.467483)"><g><path d="M 1.78125 -5.015625 L 3.015625 -5.015625 C 3.992188 -5.015625 4.484375 -4.597656 4.484375 -3.765625 L 4.484375 -2.0625 L 1.921875 -2.0625 L 1.921875 -1.40625 C 1.921875 -1.25 2.003906 -1.171875 2.171875 -1.171875 L 2.609375 -1.171875 C 2.785156 -1.171875 2.875 -1.253906 2.875 -1.421875 L 2.875 -1.703125 L 4.484375 -1.703125 L 4.484375 -1.25 C 4.484375 -0.414062 3.992188 0 3.015625 0 L 1.78125 0 C 0.789062 0 0.296875 -0.414062 0.296875 -1.25 L 0.296875 -3.765625 C 0.296875 -4.597656 0.789062 -5.015625 1.78125 -5.015625 Z M 1.921875 -2.984375 L 2.875 -2.984375 L 2.875 -3.625 C 2.875 -3.769531 2.785156 -3.84375 2.609375 -3.84375 L 2.171875 -3.84375 C 2.003906 -3.84375 1.921875 -3.769531 1.921875 -3.625 Z M 1.921875 -2.984375 "/></g></g></g><g fill="#000000" fill-opacity="1"><g transform="translate(11.866209, 10.467483)"><g><path d="M 2.109375 0 L 0.40625 0 L 0.40625 -6.734375 L 2.109375 -6.734375 Z M 2.109375 0 "/></g></g></g><g fill="#000000" fill-opacity="1"><g transform="translate(14.38128, 10.467483)"><g><path d="M 2.703125 -6.734375 L 4.421875 -6.734375 L 4.421875 0 L 2.734375 0 L 2.734375 -0.640625 C 2.640625 -0.210938 2.335938 0 1.828125 0 L 1.640625 0 C 0.742188 0 0.296875 -0.414062 0.296875 -1.25 L 0.296875 -3.765625 C 0.296875 -4.597656 0.742188 -5.015625 1.640625 -5.015625 L 1.828125 -5.015625 C 2.285156 -5.015625 2.578125 -4.835938 2.703125 -4.484375 Z M 2.265625 -1.25 L 2.4375 -1.25 C 2.613281 -1.25 2.703125 -1.351562 2.703125 -1.5625 L 2.703125 -3.46875 C 2.703125 -3.664062 2.613281 -3.765625 2.4375 -3.765625 L 2.265625 -3.765625 C 2.097656 -3.765625 2.015625 -3.691406 2.015625 -3.546875 L 2.015625 -1.484375 C 2.015625 -1.328125 2.097656 -1.25 2.265625 -1.25 Z M 2.265625 -1.25 "/></g></g></g><g fill="#0dc5b9" fill-opacity="1"><g transform="translate(19.20032, 10.467483)"><g/></g></g><g fill="#000000" fill-opacity="1"><g transform="translate(21.212376, 10.467483)"><g><path d="M 3.40625 -6.453125 L 5.125 -6.453125 L 5.125 0 L 3.40625 0 L 3.40625 -2.5625 L 2.140625 -2.5625 L 2.140625 0 L 0.40625 0 L 0.40625 -6.453125 L 2.140625 -6.453125 L 2.140625 -3.8125 L 3.40625 -3.8125 Z M 3.40625 -6.453125 "/></g></g></g><g fill="#000000" fill-opacity="1"><g transform="translate(26.74553, 10.467483)"><g><path d="M 1.78125 -5.015625 L 3.015625 -5.015625 C 3.992188 -5.015625 4.484375 -4.597656 4.484375 -3.765625 L 4.484375 -2.0625 L 1.921875 -2.0625 L 1.921875 -1.40625 C 1.921875 -1.25 2.003906 -1.171875 2.171875 -1.171875 L 2.609375 -1.171875 C 2.785156 -1.171875 2.875 -1.253906 2.875 -1.421875 L 2.875 -1.703125 L 4.484375 -1.703125 L 4.484375 -1.25 C 4.484375 -0.414062 3.992188 0 3.015625 0 L 1.78125 0 C 0.789062 0 0.296875 -0.414062 0.296875 -1.25 L 0.296875 -3.765625 C 0.296875 -4.597656 0.789062 -5.015625 1.78125 -5.015625 Z M 1.921875 -2.984375 L 2.875 -2.984375 L 2.875 -3.625 C 2.875 -3.769531 2.785156 -3.84375 2.609375 -3.84375 L 2.171875 -3.84375 C 2.003906 -3.84375 1.921875 -3.769531 1.921875 -3.625 Z M 1.921875 -2.984375 "/></g></g></g><g fill="#000000" fill-opacity="1"><g transform="translate(31.483924, 10.467483)"><g><path d="M 2.734375 -5.015625 L 4.421875 -5.015625 L 4.421875 0 L 2.703125 0 L 2.703125 -0.546875 C 2.578125 -0.179688 2.285156 0 1.828125 0 L 1.640625 0 C 0.742188 0 0.296875 -0.414062 0.296875 -1.25 L 0.296875 -3.765625 C 0.296875 -4.597656 0.742188 -5.015625 1.640625 -5.015625 L 1.828125 -5.015625 C 2.335938 -5.015625 2.640625 -4.800781 2.734375 -4.375 Z M 2.265625 -1.25 L 2.4375 -1.25 C 2.613281 -1.25 2.703125 -1.351562 2.703125 -1.5625 L 2.703125 -3.46875 C 2.703125 -3.664062 2.613281 -3.765625 2.4375 -3.765625 L 2.265625 -3.765625 C 2.097656 -3.765625 2.015625 -3.691406 2.015625 -3.546875 L 2.015625 -1.484375 C 2.015625 -1.328125 2.097656 -1.25 2.265625 -1.25 Z M 2.265625 -1.25 "/></g></g></g><g fill="#000000" fill-opacity="1"><g transform="translate(36.302798, 10.467483)"><g><path d="M 2.109375 0 L 0.40625 0 L 0.40625 -6.734375 L 2.109375 -6.734375 Z M 2.109375 0 "/></g></g></g><g fill="#000000" fill-opacity="1"><g transform="translate(38.817869, 10.467483)"><g><path d="M 2.953125 -3.765625 L 2.3125 -3.765625 L 2.3125 -1.484375 C 2.3125 -1.328125 2.394531 -1.25 2.5625 -1.25 L 2.9375 -1.25 L 2.9375 0 L 2.078125 0 C 1.097656 0 0.609375 -0.414062 0.609375 -1.25 L 0.609375 -3.765625 L 0.046875 -3.765625 L 0.046875 -5.015625 L 0.609375 -5.015625 L 0.609375 -6 L 2.3125 -6 L 2.3125 -5.015625 L 2.953125 -5.015625 Z M 2.953125 -3.765625 "/></g></g></g><g clip-path="url(#26b0782e17)"><g fill="#000000" fill-opacity="1"><g transform="translate(41.866135, 10.467483)"><g><path d="M 3 -5.015625 L 3.1875 -5.015625 C 4.070312 -5.015625 4.515625 -4.597656 4.515625 -3.765625 L 4.515625 0 L 2.8125 0 L 2.8125 -3.546875 C 2.8125 -3.691406 2.726562 -3.765625 2.5625 -3.765625 L 2.390625 -3.765625 C 2.203125 -3.765625 2.109375 -3.664062 2.109375 -3.46875 L 2.109375 0 L 0.40625 0 L 0.40625 -6.734375 L 2.109375 -6.734375 L 2.109375 -4.484375 C 2.234375 -4.835938 2.53125 -5.015625 3 -5.015625 Z M 3 -5.015625 "/></g></g></g></g></g></g></g><g transform="matrix(1, 0, 0, 1, 36, 15)"><g clip-path="url(#efeb0bb78d)"><g clip-path="url(#81f245b2f8)"><g fill="#000000" fill-opacity="1"><g transform="translate(0.424572, 5.294124)"><g><path d="M 1.40625 0.03125 C 1.15625 0.03125 0.929688 -0.0078125 0.734375 -0.09375 C 0.546875 -0.175781 0.398438 -0.289062 0.296875 -0.4375 C 0.203125 -0.59375 0.15625 -0.773438 0.15625 -0.984375 L 0.15625 -1.046875 C 0.15625 -1.066406 0.160156 -1.082031 0.171875 -1.09375 C 0.191406 -1.113281 0.210938 -1.125 0.234375 -1.125 L 0.828125 -1.125 C 0.859375 -1.125 0.878906 -1.117188 0.890625 -1.109375 C 0.910156 -1.097656 0.921875 -1.082031 0.921875 -1.0625 L 0.921875 -1.015625 C 0.921875 -0.910156 0.96875 -0.816406 1.0625 -0.734375 C 1.164062 -0.660156 1.296875 -0.625 1.453125 -0.625 C 1.597656 -0.625 1.703125 -0.65625 1.765625 -0.71875 C 1.828125 -0.78125 1.859375 -0.847656 1.859375 -0.921875 C 1.859375 -1.015625 1.816406 -1.082031 1.734375 -1.125 C 1.660156 -1.175781 1.53125 -1.234375 1.34375 -1.296875 L 1.234375 -1.328125 C 1.035156 -1.390625 0.859375 -1.457031 0.703125 -1.53125 C 0.554688 -1.613281 0.429688 -1.722656 0.328125 -1.859375 C 0.222656 -1.992188 0.171875 -2.160156 0.171875 -2.359375 C 0.171875 -2.554688 0.21875 -2.722656 0.3125 -2.859375 C 0.414062 -3.003906 0.554688 -3.113281 0.734375 -3.1875 C 0.921875 -3.269531 1.125 -3.3125 1.34375 -3.3125 C 1.59375 -3.3125 1.8125 -3.269531 2 -3.1875 C 2.1875 -3.101562 2.332031 -2.976562 2.4375 -2.8125 C 2.550781 -2.65625 2.609375 -2.472656 2.609375 -2.265625 L 2.609375 -2.234375 C 2.609375 -2.203125 2.597656 -2.175781 2.578125 -2.15625 C 2.566406 -2.144531 2.550781 -2.140625 2.53125 -2.140625 L 1.9375 -2.140625 C 1.914062 -2.140625 1.894531 -2.144531 1.875 -2.15625 C 1.863281 -2.164062 1.859375 -2.175781 1.859375 -2.1875 L 1.859375 -2.234375 C 1.859375 -2.347656 1.804688 -2.445312 1.703125 -2.53125 C 1.609375 -2.613281 1.476562 -2.65625 1.3125 -2.65625 C 1.195312 -2.65625 1.101562 -2.628906 1.03125 -2.578125 C 0.957031 -2.523438 0.921875 -2.457031 0.921875 -2.375 C 0.921875 -2.300781 0.941406 -2.238281 0.984375 -2.1875 C 1.035156 -2.144531 1.109375 -2.101562 1.203125 -2.0625 C 1.296875 -2.03125 1.4375 -1.984375 1.625 -1.921875 C 1.84375 -1.847656 2.007812 -1.78125 2.125 -1.71875 C 2.25 -1.664062 2.363281 -1.570312 2.46875 -1.4375 C 2.582031 -1.3125 2.640625 -1.148438 2.640625 -0.953125 C 2.640625 -0.753906 2.585938 -0.578125 2.484375 -0.421875 C 2.378906 -0.273438 2.234375 -0.160156 2.046875 -0.078125 C 1.859375 -0.00390625 1.644531 0.03125 1.40625 0.03125 Z M 1.40625 0.03125 "/></g></g></g></g><g fill="#000000" fill-opacity="1"><g transform="translate(4.046185, 5.294124)"><g><path d="M 1.1875 -0.015625 C 1.15625 -0.015625 1.128906 -0.0195312 1.109375 -0.03125 C 1.097656 -0.0507812 1.09375 -0.0703125 1.09375 -0.09375 L 1.09375 -1.171875 C 1.09375 -1.179688 1.09375 -1.191406 1.09375 -1.203125 L 0.140625 -3.1875 L 0.140625 -3.21875 C 0.140625 -3.257812 0.164062 -3.28125 0.21875 -3.28125 L 0.875 -3.28125 C 0.914062 -3.28125 0.945312 -3.257812 0.96875 -3.21875 L 1.46875 -2.0625 C 1.46875 -2.050781 1.472656 -2.046875 1.484375 -2.046875 C 1.492188 -2.046875 1.503906 -2.050781 1.515625 -2.0625 L 2 -3.21875 C 2.019531 -3.257812 2.054688 -3.28125 2.109375 -3.28125 L 2.765625 -3.28125 C 2.785156 -3.28125 2.800781 -3.273438 2.8125 -3.265625 C 2.832031 -3.253906 2.84375 -3.238281 2.84375 -3.21875 C 2.84375 -3.207031 2.84375 -3.195312 2.84375 -3.1875 L 1.875 -1.203125 C 1.875 -1.191406 1.875 -1.179688 1.875 -1.171875 L 1.875 -0.09375 C 1.875 -0.0703125 1.863281 -0.0507812 1.84375 -0.03125 C 1.832031 -0.0195312 1.8125 -0.015625 1.78125 -0.015625 Z M 1.1875 -0.015625 "/></g></g></g><g fill="#000000" fill-opacity="1"><g transform="translate(7.855177, 5.294124)"><g><path d="M 1.40625 0.03125 C 1.15625 0.03125 0.929688 -0.0078125 0.734375 -0.09375 C 0.546875 -0.175781 0.398438 -0.289062 0.296875 -0.4375 C 0.203125 -0.59375 0.15625 -0.773438 0.15625 -0.984375 L 0.15625 -1.046875 C 0.15625 -1.066406 0.160156 -1.082031 0.171875 -1.09375 C 0.191406 -1.113281 0.210938 -1.125 0.234375 -1.125 L 0.828125 -1.125 C 0.859375 -1.125 0.878906 -1.117188 0.890625 -1.109375 C 0.910156 -1.097656 0.921875 -1.082031 0.921875 -1.0625 L 0.921875 -1.015625 C 0.921875 -0.910156 0.96875 -0.816406 1.0625 -0.734375 C 1.164062 -0.660156 1.296875 -0.625 1.453125 -0.625 C 1.597656 -0.625 1.703125 -0.65625 1.765625 -0.71875 C 1.828125 -0.78125 1.859375 -0.847656 1.859375 -0.921875 C 1.859375 -1.015625 1.816406 -1.082031 1.734375 -1.125 C 1.660156 -1.175781 1.53125 -1.234375 1.34375 -1.296875 L 1.234375 -1.328125 C 1.035156 -1.390625 0.859375 -1.457031 0.703125 -1.53125 C 0.554688 -1.613281 0.429688 -1.722656 0.328125 -1.859375 C 0.222656 -1.992188 0.171875 -2.160156 0.171875 -2.359375 C 0.171875 -2.554688 0.21875 -2.722656 0.3125 -2.859375 C 0.414062 -3.003906 0.554688 -3.113281 0.734375 -3.1875 C 0.921875 -3.269531 1.125 -3.3125 1.34375 -3.3125 C 1.59375 -3.3125 1.8125 -3.269531 2 -3.1875 C 2.1875 -3.101562 2.332031 -2.976562 2.4375 -2.8125 C 2.550781 -2.65625 2.609375 -2.472656 2.609375 -2.265625 L 2.609375 -2.234375 C 2.609375 -2.203125 2.597656 -2.175781 2.578125 -2.15625 C 2.566406 -2.144531 2.550781 -2.140625 2.53125 -2.140625 L 1.9375 -2.140625 C 1.914062 -2.140625 1.894531 -2.144531 1.875 -2.15625 C 1.863281 -2.164062 1.859375 -2.175781 1.859375 -2.1875 L 1.859375 -2.234375 C 1.859375 -2.347656 1.804688 -2.445312 1.703125 -2.53125 C 1.609375 -2.613281 1.476562 -2.65625 1.3125 -2.65625 C 1.195312 -2.65625 1.101562 -2.628906 1.03125 -2.578125 C 0.957031 -2.523438 0.921875 -2.457031 0.921875 -2.375 C 0.921875 -2.300781 0.941406 -2.238281 0.984375 -2.1875 C 1.035156 -2.144531 1.109375 -2.101562 1.203125 -2.0625 C 1.296875 -2.03125 1.4375 -1.984375 1.625 -1.921875 C 1.84375 -1.847656 2.007812 -1.78125 2.125 -1.71875 C 2.25 -1.664062 2.363281 -1.570312 2.46875 -1.4375 C 2.582031 -1.3125 2.640625 -1.148438 2.640625 -0.953125 C 2.640625 -0.753906 2.585938 -0.578125 2.484375 -0.421875 C 2.378906 -0.273438 2.234375 -0.160156 2.046875 -0.078125 C 1.859375 -0.00390625 1.644531 0.03125 1.40625 0.03125 Z M 1.40625 0.03125 "/></g></g></g><g fill="#000000" fill-opacity="1"><g transform="translate(11.47679, 5.294124)"><g><path d="M 2.578125 -3.28125 C 2.597656 -3.28125 2.613281 -3.269531 2.625 -3.25 C 2.644531 -3.238281 2.65625 -3.222656 2.65625 -3.203125 L 2.65625 -2.703125 C 2.65625 -2.671875 2.644531 -2.644531 2.625 -2.625 C 2.613281 -2.613281 2.597656 -2.609375 2.578125 -2.609375 L 1.796875 -2.609375 C 1.773438 -2.609375 1.765625 -2.597656 1.765625 -2.578125 L 1.765625 -0.078125 C 1.765625 -0.0546875 1.753906 -0.0351562 1.734375 -0.015625 C 1.722656 -0.00390625 1.703125 0 1.671875 0 L 1.0625 0 C 1.039062 0 1.019531 -0.00390625 1 -0.015625 C 0.988281 -0.0351562 0.984375 -0.0546875 0.984375 -0.078125 L 0.984375 -2.578125 C 0.984375 -2.597656 0.972656 -2.609375 0.953125 -2.609375 L 0.1875 -2.609375 C 0.164062 -2.609375 0.144531 -2.613281 0.125 -2.625 C 0.113281 -2.644531 0.109375 -2.671875 0.109375 -2.703125 L 0.109375 -3.203125 C 0.109375 -3.222656 0.113281 -3.238281 0.125 -3.25 C 0.144531 -3.269531 0.164062 -3.28125 0.1875 -3.28125 Z M 2.578125 -3.28125 "/></g></g></g><g fill="#000000" fill-opacity="1"><g transform="translate(15.07498, 5.294124)"><g><path d="M 2.5625 -2.703125 C 2.5625 -2.671875 2.550781 -2.644531 2.53125 -2.625 C 2.519531 -2.613281 2.5 -2.609375 2.46875 -2.609375 L 1.046875 -2.609375 C 1.023438 -2.609375 1.015625 -2.597656 1.015625 -2.578125 L 1.015625 -2.03125 C 1.015625 -2.007812 1.023438 -2 1.046875 -2 L 1.953125 -2 C 1.972656 -2 1.988281 -1.988281 2 -1.96875 C 2.019531 -1.957031 2.03125 -1.9375 2.03125 -1.90625 L 2.03125 -1.421875 C 2.03125 -1.390625 2.019531 -1.363281 2 -1.34375 C 1.988281 -1.332031 1.972656 -1.328125 1.953125 -1.328125 L 1.046875 -1.328125 C 1.023438 -1.328125 1.015625 -1.316406 1.015625 -1.296875 L 1.015625 -0.703125 C 1.015625 -0.679688 1.023438 -0.671875 1.046875 -0.671875 L 2.46875 -0.671875 C 2.5 -0.671875 2.519531 -0.660156 2.53125 -0.640625 C 2.550781 -0.628906 2.5625 -0.609375 2.5625 -0.578125 L 2.5625 -0.078125 C 2.5625 -0.0546875 2.550781 -0.0351562 2.53125 -0.015625 C 2.519531 -0.00390625 2.5 0 2.46875 0 L 0.3125 0 C 0.289062 0 0.269531 -0.00390625 0.25 -0.015625 C 0.238281 -0.0351562 0.234375 -0.0546875 0.234375 -0.078125 L 0.234375 -3.203125 C 0.234375 -3.222656 0.238281 -3.238281 0.25 -3.25 C 0.269531 -3.269531 0.289062 -3.28125 0.3125 -3.28125 L 2.46875 -3.28125 C 2.5 -3.28125 2.519531 -3.269531 2.53125 -3.25 C 2.550781 -3.238281 2.5625 -3.222656 2.5625 -3.203125 Z M 2.5625 -2.703125 "/></g></g></g><g fill="#000000" fill-opacity="1"><g transform="translate(18.612271, 5.294124)"><g><path d="M 0.3125 0 C 0.289062 0 0.269531 -0.00390625 0.25 -0.015625 C 0.238281 -0.0351562 0.234375 -0.0546875 0.234375 -0.078125 L 0.234375 -3.203125 C 0.234375 -3.222656 0.238281 -3.238281 0.25 -3.25 C 0.269531 -3.269531 0.289062 -3.28125 0.3125 -3.28125 L 0.921875 -3.28125 C 0.960938 -3.28125 0.992188 -3.257812 1.015625 -3.21875 L 1.640625 -2.21875 C 1.660156 -2.195312 1.675781 -2.195312 1.6875 -2.21875 L 2.328125 -3.21875 C 2.347656 -3.257812 2.378906 -3.28125 2.421875 -3.28125 L 3.03125 -3.28125 C 3.050781 -3.28125 3.066406 -3.269531 3.078125 -3.25 C 3.097656 -3.238281 3.109375 -3.222656 3.109375 -3.203125 L 3.109375 -0.078125 C 3.109375 -0.0546875 3.097656 -0.0351562 3.078125 -0.015625 C 3.066406 -0.00390625 3.050781 0 3.03125 0 L 2.421875 0 C 2.390625 0 2.363281 -0.00390625 2.34375 -0.015625 C 2.332031 -0.0351562 2.328125 -0.0546875 2.328125 -0.078125 L 2.328125 -1.921875 C 2.328125 -1.929688 2.320312 -1.9375 2.3125 -1.9375 C 2.300781 -1.945312 2.296875 -1.941406 2.296875 -1.921875 L 1.90625 -1.3125 C 1.882812 -1.269531 1.851562 -1.25 1.8125 -1.25 L 1.53125 -1.25 C 1.488281 -1.25 1.457031 -1.269531 1.4375 -1.3125 L 1.046875 -1.921875 C 1.046875 -1.941406 1.039062 -1.945312 1.03125 -1.9375 C 1.019531 -1.9375 1.015625 -1.929688 1.015625 -1.921875 L 1.015625 -0.078125 C 1.015625 -0.0546875 1.003906 -0.0351562 0.984375 -0.015625 C 0.972656 -0.00390625 0.953125 0 0.921875 0 Z M 0.3125 0 "/></g></g></g><g fill="#000000" fill-opacity="1"><g transform="translate(22.786654, 5.294124)"><g><path d="M 1.40625 0.03125 C 1.15625 0.03125 0.929688 -0.0078125 0.734375 -0.09375 C 0.546875 -0.175781 0.398438 -0.289062 0.296875 -0.4375 C 0.203125 -0.59375 0.15625 -0.773438 0.15625 -0.984375 L 0.15625 -1.046875 C 0.15625 -1.066406 0.160156 -1.082031 0.171875 -1.09375 C 0.191406 -1.113281 0.210938 -1.125 0.234375 -1.125 L 0.828125 -1.125 C 0.859375 -1.125 0.878906 -1.117188 0.890625 -1.109375 C 0.910156 -1.097656 0.921875 -1.082031 0.921875 -1.0625 L 0.921875 -1.015625 C 0.921875 -0.910156 0.96875 -0.816406 1.0625 -0.734375 C 1.164062 -0.660156 1.296875 -0.625 1.453125 -0.625 C 1.597656 -0.625 1.703125 -0.65625 1.765625 -0.71875 C 1.828125 -0.78125 1.859375 -0.847656 1.859375 -0.921875 C 1.859375 -1.015625 1.816406 -1.082031 1.734375 -1.125 C 1.660156 -1.175781 1.53125 -1.234375 1.34375 -1.296875 L 1.234375 -1.328125 C 1.035156 -1.390625 0.859375 -1.457031 0.703125 -1.53125 C 0.554688 -1.613281 0.429688 -1.722656 0.328125 -1.859375 C 0.222656 -1.992188 0.171875 -2.160156 0.171875 -2.359375 C 0.171875 -2.554688 0.21875 -2.722656 0.3125 -2.859375 C 0.414062 -3.003906 0.554688 -3.113281 0.734375 -3.1875 C 0.921875 -3.269531 1.125 -3.3125 1.34375 -3.3125 C 1.59375 -3.3125 1.8125 -3.269531 2 -3.1875 C 2.1875 -3.101562 2.332031 -2.976562 2.4375 -2.8125 C 2.550781 -2.65625 2.609375 -2.472656 2.609375 -2.265625 L 2.609375 -2.234375 C 2.609375 -2.203125 2.597656 -2.175781 2.578125 -2.15625 C 2.566406 -2.144531 2.550781 -2.140625 2.53125 -2.140625 L 1.9375 -2.140625 C 1.914062 -2.140625 1.894531 -2.144531 1.875 -2.15625 C 1.863281 -2.164062 1.859375 -2.175781 1.859375 -2.1875 L 1.859375 -2.234375 C 1.859375 -2.347656 1.804688 -2.445312 1.703125 -2.53125 C 1.609375 -2.613281 1.476562 -2.65625 1.3125 -2.65625 C 1.195312 -2.65625 1.101562 -2.628906 1.03125 -2.578125 C 0.957031 -2.523438 0.921875 -2.457031 0.921875 -2.375 C 0.921875 -2.300781 0.941406 -2.238281 0.984375 -2.1875 C 1.035156 -2.144531 1.109375 -2.101562 1.203125 -2.0625 C 1.296875 -2.03125 1.4375 -1.984375 1.625 -1.921875 C 1.84375 -1.847656 2.007812 -1.78125 2.125 -1.71875 C 2.25 -1.664062 2.363281 -1.570312 2.46875 -1.4375 C 2.582031 -1.3125 2.640625 -1.148438 2.640625 -0.953125 C 2.640625 -0.753906 2.585938 -0.578125 2.484375 -0.421875 C 2.378906 -0.273438 2.234375 -0.160156 2.046875 -0.078125 C 1.859375 -0.00390625 1.644531 0.03125 1.40625 0.03125 Z M 1.40625 0.03125 "/></g></g></g></g></g></g></g></g></svg>