<svg width="240" height="40" viewBox="0 0 240 40" fill="none" xmlns="http://www.w3.org/2000/svg">
  <!-- Logo Background -->
  <rect x="0" y="0" width="40" height="40" rx="8" fill="#059669"/>
  
  <!-- Shield Icon -->
  <path d="M20 8C18.5 8 17 8.5 15.5 9.5C14 10.5 12.5 12 12 14V20C12 24 14 28 17 30.5C18.5 31.5 19.5 31.8 20 32C20.5 31.8 21.5 31.5 23 30.5C26 28 28 24 28 20V14C27.5 12 26 10.5 24.5 9.5C23 8.5 21.5 8 20 8Z" fill="white"/>
  
  <!-- Text -->
  <text x="52" y="26" font-family="system-ui, -apple-system, sans-serif" font-size="20" font-weight="bold" fill="#111827">Field Health Systems</text>
</svg>